<svg xmlns="http://www.w3.org/2000/svg" fill="none" viewBox="0 0 248 80">
  <g clip-path="url(#a)">
    <path fill="#96CC92" d="M74.06 40.003C77.751 35.762 80 30.231 80 24.167 80 10.82 69.18 0 55.833 0 49.769 0 44.241 2.249 40 5.938 35.755 2.249 30.231 0 24.167 0 10.82 0 0 10.82 0 24.167 0 30.231 2.249 35.759 5.938 40 2.249 44.241 0 49.769 0 55.833 0 69.18 10.82 80 24.167 80c6.064 0 11.588-2.249 15.833-5.938C44.241 77.751 49.769 80 55.833 80 69.18 80 80 69.18 80 55.833c0-6.064-2.249-11.592-5.938-15.833l-.002.003Zm-.727-15.836c0 9.648-7.852 17.5-17.5 17.5-4.388 0-8.355-1.68-11.429-4.362 2.468-3.782 3.929-8.281 3.929-13.138 0-4.857-1.445-9.369-3.909-13.154 3.069-2.673 7.031-4.346 11.409-4.346 9.648 0 17.5 7.852 17.5 17.5Zm-49.166-17.5c9.648 0 17.5 7.852 17.5 17.5 0 4.388-1.68 8.355-4.355 11.432-3.786-2.471-8.288-3.932-13.145-3.932-4.857 0-9.369 1.445-13.158 3.912-2.669-3.072-4.342-7.034-4.342-11.412 0-9.648 7.852-17.5 17.5-17.5Zm-17.5 49.166c0-9.648 7.852-17.5 17.5-17.5 4.388 0 8.355 1.68 11.432 4.359-2.471 3.785-3.932 8.284-3.932 13.141 0 4.857 1.445 9.369 3.912 13.154-3.072 2.673-7.031 4.346-11.412 4.346-9.648 0-17.5-7.852-17.5-17.5Zm49.166 17.5c-9.648 0-17.5-7.852-17.5-17.5 0-4.388 1.68-8.355 4.355-11.432 3.786 2.471 8.288 3.932 13.145 3.932 4.857 0 9.369-1.445 13.158-3.912 2.669 3.072 4.342 7.034 4.342 11.412 0 9.648-7.852 17.5-17.5 17.5Z"/>
    <path fill="#393E46" d="m134.866 27.4637-1.844 10.2318c-3.41-1.4748-4.056-1.1983-5.623-1.1983-5.53 0-8.757 2.9497-8.757 10.2319v25.6257H105V26.8184h13.642v4.0559c1.752-3.1341 6.545-4.7011 9.587-4.7011 2.858 0 4.517.0922 6.637 1.2905Zm15.504-.6453v45.5364h-13.643V26.8184h13.643Zm.369-13.0893c0 3.8715-3.134 6.9134-7.282 6.9134-3.964 0-7.19-3.0419-7.19-6.9134 0-3.7794 3.226-6.7291 7.19-6.7291 4.148 0 7.282 2.9497 7.282 6.7291Zm17.992 26.5474-10.139-5.8072c5.07-5.7151 11.891-8.3883 18.989-8.3883 13.642 0 19.173 7.4665 19.173 14.4721v31.8017h-13.643v-3.2263C180.991 71.3408 177.212 73 172.972 73c-12.444 0-17.238-5.5307-17.238-14.0112 0-9.5866 7.743-16.0391 20.28-16.0391h7.097c0-3.4106-2.581-5.6229-6.452-5.6229-3.964 0-5.9.7374-7.928 2.9497Zm14.38 17.0531v-4.0559h-8.019c-3.595 0-6.268 2.4889-5.715 5.9917.368 2.4888 2.581 3.5028 5.715 3.5028 5.991 0 8.019-3.4107 8.019-5.4386Zm64.359-10.9693v25.9945h-13.642V46.3603c0-6.9134-1.844-9.9553-7.19-9.9553-5.531 0-8.757 3.0419-8.757 9.9553v25.9945h-13.643V26.8184h13.643v4.3324c3.502-3.4106 8.296-4.9776 12.259-4.9776 12.813 0 17.33 6.176 17.33 20.1871Z"/>
  </g>
  <defs>
    <clipPath id="a">
      <path fill="#fff" d="M0 0h247.47v80H0z"/>
    </clipPath>
  </defs>
</svg>
